<?xml version="1.0" encoding="utf-8"?>
<!-- Generator: Adobe Illustrator 23.0.1, SVG Export Plug-In . SVG Version: 6.00 Build 0)  -->
<svg version="1.1" id="Layer_1" xmlns="http://www.w3.org/2000/svg" xmlns:xlink="http://www.w3.org/1999/xlink" x="0px" y="0px"
	 viewBox="0 0 531.16 174.78" style="enable-background:new 0 0 531.16 174.78;" xml:space="preserve">
<style type="text/css">
	.st0{font-family:'BerlinSansFBDemi-Bold';}
	.st1{font-size:105.5919px;}
	.st2{letter-spacing:15;}
	.st3{fill:url(#SVGID_1_);}
	.st4{font-family:'ArialRoundedMTBold';}
	.st5{font-size:106.7082px;}
	.st6{letter-spacing:10;}
	.st7{fill:#C2272D;}
	.st8{font-family:'LEMONMILK-Bold';}
	.st9{font-size:56.5708px;}
	.st10{letter-spacing:11;}
</style>
<g>
	<text transform="matrix(1 0 0 1 0 98.9012)" class="st0 st1 st2">C  VID</text>
	
		<linearGradient id="SVGID_1_" gradientUnits="userSpaceOnUse" x1="79.329" y1="-47.4735" x2="158.3424" y2="-47.4735" gradientTransform="matrix(-0.0333 0.9994 -0.9994 -0.0333 73.503 -54.9555)">
		<stop  offset="0.4438" style="stop-color:#C2272D"/>
		<stop  offset="1" style="stop-color:#C33130;stop-opacity:0.8"/>
	</linearGradient>
	<path class="st3" d="M149.75,74.3c0.24-3.85,0.6-7.71,0.52-11.57c-0.03-1.5-0.24-2.93-0.48-4.42c-0.05-0.32-0.1-0.66,0.06-0.94
		c0.3-0.54,1.12-0.47,1.65-0.16c0.53,0.31,0.99,0.8,1.59,0.91c1.52,0.28,2.29-1.78,2.29-3.32c0-1.61-0.23-3.33-1.29-4.54
		s-3.19-1.58-4.24-0.37c-0.37,0.43-0.61,1.03-1.14,1.25c-0.96,0.41-1.82-0.74-2.29-1.67c-2.32-4.64-5.8-8.7-10.02-11.71
		c-0.92-0.65-2-1.61-1.64-2.68c0.43-1.29,2.37-1.1,3.46-1.91c1.08-0.81,1.09-2.53,0.34-3.66s-2.01-1.79-3.25-2.33
		c-1.17-0.51-2.45-0.98-3.7-0.72s-2.36,1.55-1.98,2.76c0.16,0.5,0.53,0.91,0.69,1.41c0.43,1.35-0.92,2.72-2.32,2.92
		c-1.4,0.2-2.78-0.38-4.12-0.84c-4.85-1.64-10.21-1.73-15.11-0.26c-0.55-0.8,0.48-1.72,0.79-2.63c0.41-1.19-0.55-2.51-1.74-2.92
		c-1.19-0.4-2.51-0.12-3.71,0.25c-1.21,0.37-2.47,0.89-3.2,1.92s-0.67,2.72,0.43,3.35c0.48,0.28,1.11,0.34,1.45,0.78
		c0.73,0.95-0.64,2.08-1.74,2.56C96.17,37.9,91.94,41.51,89.07,46c-0.53,0.83-1.28,1.81-2.24,1.61c-1.24-0.26-1.22-2.02-1.86-3.11
		c-0.93-1.57-3.42-1.48-4.77-0.25c-1.35,1.23-1.82,3.13-2.1,4.94c-0.19,1.21-0.17,2.74,0.91,3.32c1.62,0.87,3.88-1.35,5.29-0.17
		c0.83,0.69,0.6,2,0.33,3.05c-1.52,5.94-1.82,12.2-0.87,18.26c-0.45,0.4-1.06-0.21-1.54-0.58c-1.04-0.8-2.69-0.31-3.44,0.77
		c-0.75,1.08-0.77,2.52-0.46,3.8c0.43,1.77,1.59,3.51,3.35,3.98c1.76,0.46,3.94-0.98,3.7-2.78c2.96,5.56,7.14,10.47,12.16,14.27
		c0.81,0.62,1.76,1.49,1.47,2.47c-0.38,1.29-2.29,1.12-3.39,1.88c-1.15,0.79-1.2,2.57-0.46,3.75s2.04,1.88,3.31,2.44
		c1.06,0.46,2.21,0.88,3.36,0.75c1.15-0.13,2.3-0.96,2.43-2.12c0.17-1.56-1.42-3.35-0.34-4.48c0.63-0.67,1.73-0.48,2.62-0.26
		c6.11,1.51,12.51,1.85,18.75,0.99c0.07,0.86-0.75,1.52-1.02,2.34c-0.35,1.04,0.29,2.22,1.24,2.76s2.11,0.56,3.19,0.37
		c1.85-0.33,3.74-1.39,4.34-3.17c0.61-1.78-0.74-4.14-2.62-3.98c5.45-3.07,10.29-7.19,14.19-12.08c0.65-0.82,1.56-1.76,2.56-1.45
		c1.36,0.42,1.13,2.49,2.05,3.57c0.72,0.84,2.08,0.9,3.07,0.39c0.99-0.5,1.69-1.43,2.29-2.37c0.92-1.43,1.73-3.15,1.26-4.79
		c-0.35-1.2-1.69-2.07-2.92-1.9c-1.08,0.15-2.89,1.45-3.69-0.04"/>
	<text transform="matrix(1 0 0 1 379.6618 95.067)"><tspan x="0" y="0" class="st4 st5 st6">-</tspan><tspan x="46.21" y="0" class="st0 st5 st6">1</tspan><tspan x="91.21" y="0" class="st0 st5">9</tspan></text>
	<text transform="matrix(1 0 0 1 12.3664 156.5432)" class="st7 st8 st9 st10">TRACKER</text>
</g>
</svg>
