<?xml version="1.0" encoding="utf-8"?>
<!-- Generator: Adobe Illustrator 23.0.1, SVG Export Plug-In . SVG Version: 6.00 Build 0)  -->
<svg version="1.1" id="Layer_1" xmlns="http://www.w3.org/2000/svg" xmlns:xlink="http://www.w3.org/1999/xlink" x="0px" y="0px"
	 viewBox="0 0 545.77 281.95" style="enable-background:new 0 0 545.77 281.95;" xml:space="preserve">
<style type="text/css">
	.st0{fill:#EB2629;}
	.st1{fill:#A9A8A9;}
	.st2{fill:#F3A3A0;}
	.st3{font-family:'Roboto-Black';}
	.st4{font-size:90.3745px;}
	.st5{font-family:'Roboto-Bold';}
	.st6{font-size:31.6286px;}
	.st7{letter-spacing:7;}
</style>
<g>
	<path class="st0" d="M111.8,73.67c0.1,0.36,0.21,0.72,0.33,1.07c2.06,6.13,7.05,11.37,13.29,13.07c6.24,1.7,13.54-0.52,17.27-5.81
		c2.66-3.77,3.36-8.59,3.26-13.2c-0.14-6.65-1.78-13.18-2.32-19.81s0.15-13.74,4.12-19.08c3.82-5.15,10.41-7.95,16.81-7.64
		s12.5,3.57,16.73,8.39c3.83,4.37,6.22,10.28,5.37,16.03c-1.49,10.05-11.61,16.13-17.49,24.41c-3.57,5.03-5.62,11.11-5.83,17.27
		c-0.02,0.61-0.03,1.24-0.32,1.77c-0.73,1.35-2.64,1.29-4.16,1.12c-12.26-1.38-25,2.21-34.74,9.77
		c-14.17,11-20.01,28.35-18.01,45.84c1.03,9.05,4.36,16.91,9.77,24.02c3.88,5.1,8.92,8.9,14.41,12.07
		c6.42,3.71,13.38,5.68,20.86,5.68c7.6,0,15.19,0.14,22.79,0.14c0.31,0,0.64,0,0.92,0.14c0.48,0.23,0.7,0.77,0.91,1.26
		c1.98,4.64,6.16,7.6,9.9,10.75c6.64,5.6,14.15,10.16,19.6,17.17c3.5,4.5,4.2,9.42,3.04,14.74c-1.21,5.55-4.9,9.43-9.14,12.9
		c-6.12,5-13.11,6.19-20.28,3.39c-7.34-2.86-11.4-8.99-13.42-16.48c-1.93-7.15-0.43-14.54-1.54-21.77
		c-0.86-5.61-3.06-10.33-7.64-13.7c-3.74-2.76-7.87-4.58-12.71-4.04c-4.42,0.49-7.74,2.49-10.45,6.18
		c-5.94,8.08-6.87,16.83-3.17,25.73c5.64,13.58,0.88,23.72-8.82,30.97c-6.56,4.9-17.67,5.43-25.97-2.71
		c-6.54-6.42-8-15.06-4.53-23.43c3.59-8.64,11.06-13.92,16.47-21.21c3.3-4.45,4.49-9.88,3.92-15.6c-0.61-6.1-5.83-12.38-11.19-13.64
		c-9.06-2.13-16.06,1.17-21.81,7.88c-7.5,8.76-11.11,20.25-23.09,24.21c-8.8,2.91-16.75-2.1-22.46-8.55
		c-5.03-5.68-5.95-14.53-3.46-20.85c8.24-20.88,31.44-8.93,46.68-17.77c7.6-4.4,11.33-14.13,7.93-22.37
		c-4.08-9.89-15.7-11.59-25.09-9.98c-7.35,1.26-14.78,3.7-22.1,2.27c-11.56-2.26-19.68-15.43-16.51-26.77s16.93-18.4,27.99-14.35
		c12.3,4.5,19.36,19.67,32.35,21.36c5.72,0.74,11.76-1.62,15.46-6.05c3.7-4.43,4.95-10.79,3.19-16.29
		c-4.47-14.01-24.2-17.52-30.56-30.78c-2.17-4.53-2.49-9.89-1.06-14.71c2.6-8.77,11.21-15.4,20.35-15.66s18.12,5.86,21.21,14.47
		C112.04,54.43,109.23,64.59,111.8,73.67z"/>
	<path class="st1" d="M174.55,151.08c-0.5,0.3-0.86,0.12-1.15-0.33C173.98,150.16,174.34,150.36,174.55,151.08z"/>
	<path class="st2" d="M71.19,198.71c-0.07-0.44,0.12-0.66,0.56-0.69C71.84,198.46,71.64,198.68,71.19,198.71z"/>
	<text transform="matrix(1 0 0 1 122.2094 171.339)" class="st3 st4">COVID-19</text>
	<text transform="matrix(1 0 0 1 243.4676 216.2775)" class="st0 st5 st6 st7">TRACKER</text>
</g>
</svg>
